<?xml version="1.0" encoding="UTF-8"?>
<svg version="1.1" xmlns="http://www.w3.org/2000/svg" width="512" height="512">
<path d="M0 0 C9.91836351 8.51543709 15.927248 18.03738266 18 31 C18.15210631 34.17022044 18.14782201 37.33781424 18.14717102 40.51123047 C18.15084771 41.47413215 18.1545244 42.43703382 18.1583125 43.42911434 C18.16933309 46.65847747 18.17319046 49.8878084 18.17700195 53.1171875 C18.18326791 55.43177899 18.18991482 57.74636948 18.19691467 60.06095886 C18.21794448 67.66563213 18.22831712 75.27030557 18.23828125 82.875 C18.24232942 85.49510712 18.24644636 88.11521414 18.25063133 90.73532104 C18.26749938 101.63687375 18.28213316 112.53842355 18.28938007 123.43998718 C18.29128978 126.26679485 18.29321014 129.09360252 18.29516602 131.92041016 C18.29564976 132.62294831 18.2961335 133.32548647 18.2966319 134.04931366 C18.30492395 145.41811724 18.33024794 156.78681533 18.36274669 168.15557289 C18.39588377 179.84351431 18.41383488 191.53140225 18.41702431 203.21939087 C18.41937168 209.77529832 18.42829157 216.33103901 18.45348549 222.88690186 C18.47682247 229.05932394 18.48097663 235.23147012 18.47072411 241.40392494 C18.47022998 243.66250846 18.47651369 245.92110583 18.49028015 248.17964745 C18.58242838 264.20125616 17.90941045 276.71238144 8 290 C14.6 290.33 21.2 290.66 28 291 C27.99723462 289.52640959 27.99446924 288.05281918 27.99162006 286.53457451 C27.92666184 251.56308908 27.87718613 216.59161339 27.84680401 181.6200804 C27.84305184 177.31670714 27.83916888 173.01333401 27.83520508 168.70996094 C27.83441815 167.85322836 27.83363122 166.99649578 27.83282044 166.11380161 C27.81976265 152.23743619 27.79610674 138.361108 27.76854161 124.48476468 C27.74049781 110.24884181 27.72382591 96.01293846 27.71773452 81.7769891 C27.71361595 72.9909826 27.70060266 64.20508137 27.6762506 55.41910727 C27.66040606 49.39615252 27.65559673 43.37325227 27.65949587 37.35027818 C27.66141942 33.87410524 27.65844815 30.39811639 27.64238358 26.92197609 C27.62750408 23.15355508 27.63103029 19.38558804 27.63923645 15.61715698 C27.63049793 14.51793187 27.6217594 13.41870676 27.61275607 12.28617179 C27.64524744 6.78305878 27.81048943 2.70745656 31 -2 C35.48740821 -6.29230351 39.10701529 -8.90001205 45.390625 -9.1171875 C80.2238385 -6.93129758 111.66637389 9.16382487 135 35 C158.2356302 62.13163466 168.99235259 96.99278425 166.53515625 132.46875 C165.27673808 146.96979489 161.85060379 160.68668575 156 174 C155.57509277 174.98129883 155.57509277 174.98129883 155.14160156 175.98242188 C147.71822723 192.79780021 136.02863617 208.57565925 122 220.5 C100.96713008 238.4435349 91.34050101 263.07949188 88 290 C88.76183594 290.07476562 89.52367187 290.14953125 90.30859375 290.2265625 C99.89261114 291.44699917 106.36393643 294.36048149 112.4375 302 C117.72961746 309.23708371 117.80398623 317.35956967 117 326 C116.05037641 329.27456411 114.73077404 332.07195217 113 335 C112.4225 336.010625 111.845 337.02125 111.25 338.0625 C110.8375 338.701875 110.425 339.34125 110 340 C110.42152344 340.60328125 110.84304688 341.2065625 111.27734375 341.828125 C111.82519531 342.62734375 112.37304688 343.4265625 112.9375 344.25 C113.48277344 345.03890625 114.02804687 345.8278125 114.58984375 346.640625 C118.22638304 352.72502868 117.64490968 360.14320172 117 367 C114.45150644 375.46831267 108.76340964 382.2493448 101 386.4375 C94.68241211 389.0194707 87.68758047 388.31719749 81 388 C80.99742187 388.65484375 80.99484375 389.3096875 80.9921875 389.984375 C80.56484633 400.06962665 77.1116619 408.4646529 69.75 415.5 C60.47407185 423.69733185 49.42050507 423.59833792 37.75 423.53125 C36.0843076 423.53395058 34.41861675 423.53783769 32.75292969 423.54284668 C29.27653873 423.54871519 25.8005613 423.54026506 22.32421875 423.52148438 C17.89271112 423.49869609 13.46217285 423.51183352 9.03070068 423.53577423 C5.59546754 423.55030441 2.16046007 423.54559339 -1.27478027 423.53526306 C-2.90767535 423.53261566 -4.54059167 423.53579472 -6.17346191 423.54518127 C-18.22402429 423.59927028 -28.04094093 422.61294843 -37.1796875 413.9921875 C-44.44899829 406.03650402 -47.42832663 398.70816583 -47 388 C-47.97839844 388.04640625 -48.95679688 388.0928125 -49.96484375 388.140625 C-60.56903895 388.43257924 -68.38066527 387.19627569 -76.4296875 379.83984375 C-82.24779945 373.02310064 -84.57910522 364.83135454 -84 356 C-82.68453458 349.90629991 -80.78322784 344.95733303 -77 340 C-77.28746094 339.4328125 -77.57492188 338.865625 -77.87109375 338.28125 C-78.98081337 336.0387716 -80.03513074 333.78130665 -81.0625 331.5 C-81.40410156 330.7471875 -81.74570313 329.994375 -82.09765625 329.21875 C-85.35673793 321.2050773 -84.02962698 313.8744184 -81 306 C-77.16352434 298.87511663 -71.34991958 294.22679396 -64 291 C-64.74056641 289.96939453 -64.74056641 289.96939453 -65.49609375 288.91796875 C-66.13675781 288.01691406 -66.77742188 287.11585938 -67.4375 286.1875 C-68.07558594 285.29417969 -68.71367187 284.40085937 -69.37109375 283.48046875 C-71 281 -71 281 -72 278 C-73.50626953 277.87044922 -73.50626953 277.87044922 -75.04296875 277.73828125 C-92.38908542 276.04483275 -106.77804532 270.1600851 -118.21875 256.46875 C-127.41280556 243.7261116 -130.87448822 228.46454559 -128.54296875 212.9609375 C-128.08502021 210.62177591 -127.58414097 208.31048615 -127 206 C-127.59425781 205.68289063 -128.18851563 205.36578125 -128.80078125 205.0390625 C-145.277594 195.76284755 -155.1847464 182.52417697 -160.75 164.58203125 C-164.66744242 148.34096788 -161.72110903 131.88933816 -154.01953125 117.296875 C-147.48682262 106.63225975 -137.76049924 98.21018174 -127 92 C-127.144375 91.42894531 -127.28875 90.85789062 -127.4375 90.26953125 C-131.41101668 72.91298963 -127.75251967 58.14204807 -119 43 C-112.60016142 33.14175282 -101.12383348 26.18003375 -90 23 C-87.68581717 22.66306324 -85.36932954 22.40916698 -83.04492188 22.15307617 C-75.70838283 21.56590983 -75.70838283 21.56590983 -69.83203125 17.6875 C-68.39650649 14.88381382 -68.39650649 14.88381382 -67.24609375 11.9140625 C-62.92448278 1.80772461 -52.59043923 -2.98114928 -43 -7 C-29.10912754 -12.47809055 -11.83565915 -8.57215019 0 0 Z M44 9 C43.90318833 10.50128397 43.87628266 12.0071269 43.87695217 13.51152897 C43.87496112 14.49235417 43.87297007 15.47317938 43.87091869 16.48372656 C43.87383153 17.57417019 43.87674437 18.66461382 43.87974548 19.7881012 C43.87889106 20.93643383 43.87803663 22.08476647 43.87715632 23.26789707 C43.87578818 26.46949485 43.87893548 29.67105269 43.88393438 32.87264574 C43.88823571 36.31983148 43.88679268 39.76701521 43.8860321 43.21420288 C43.88550667 49.19140125 43.88865553 55.16858874 43.89426994 61.14578438 C43.90238227 69.78790326 43.90499989 78.43001686 43.90625793 87.07213914 C43.90844888 101.09195968 43.9151101 115.11177441 43.92456055 129.1315918 C43.93373358 142.75398733 43.94081494 156.3763813 43.94506836 169.9987793 C43.94533108 170.83786233 43.94559381 171.67694536 43.94586449 172.54145516 C43.94716949 176.75070854 43.94843321 180.95996192 43.94967639 185.16921532 C43.96005032 220.11281452 43.97794417 255.05640634 44 290 C52.91 290 61.82 290 71 290 C71.391875 287.050625 71.78375 284.10125 72.1875 281.0625 C77.02419379 248.00681361 92.42547321 224.71764581 116.10351562 201.95458984 C122.17231563 196.08775717 127.4870267 190.18102554 132 183 C132.99193359 181.47826172 132.99193359 181.47826172 134.00390625 179.92578125 C149.86509435 153.33145835 153.53307482 122.82887297 146.49609375 92.85351562 C139.30542618 64.80991212 120.55747153 39.23102372 95.82421875 24.19921875 C87.36162653 19.24352825 52.77716409 0.22283591 44 9 Z M-30 388 C-30.03623487 395.49044587 -30.03623487 395.49044587 -26 401 C-20.795511 405.93056853 -15.61562812 407.2451517 -8.55493164 407.2746582 C-6.66750999 407.28895622 -6.66750999 407.28895622 -4.74195862 407.30354309 C-3.38135754 407.30328163 -2.02075645 407.30234445 -0.66015625 407.30078125 C0.74939601 407.30467327 2.1589471 407.30900898 3.5684967 407.31376648 C6.51632497 407.32120814 9.46403342 407.3209523 12.41186523 407.31567383 C16.17552201 407.3098803 19.93868649 407.32681685 23.70226192 407.3500185 C26.61148408 407.36480287 29.52058892 407.36562121 32.429842 407.36250877 C33.81681862 407.36301958 35.20380223 407.36821174 36.59074211 407.37832069 C45.43851814 407.43490405 51.2457397 407.02543837 58.75 402.25 C61.60100266 399.39899734 62.72991916 396.81024251 64 393 C64 391.35 64 389.7 64 388 C32.98 388 1.96 388 -30 388 Z " fill="#1483DF" transform="translate(214,88)"/>
<path d="M0 0 C7.45757061 5.22314583 12.32354752 11.95683292 14.796875 20.74609375 C15.19884637 23.99961558 15.20283386 27.21115212 15.17782593 30.48641968 C15.1825059 31.43766712 15.18718587 32.38891456 15.19200766 33.36898768 C15.2039268 36.54089479 15.19451228 39.71236739 15.18505859 42.88427734 C15.18912571 45.16477205 15.19446837 47.44526478 15.20098877 49.72575378 C15.21465298 55.90968781 15.2093669 62.0934715 15.19985151 68.27740812 C15.1922485 74.75498067 15.19930249 81.23254047 15.20401001 87.71011353 C15.20981584 99.28627883 15.20049933 110.86237565 15.185232 122.43853016 C15.17183591 132.91999145 15.17415254 143.40135302 15.18798828 153.8828125 C15.20406892 166.07052617 15.21000453 178.25816887 15.20115149 190.44589293 C15.19648104 196.89150805 15.19583274 203.33705458 15.20576096 209.78266525 C15.21444676 215.84512202 15.20837899 221.9073911 15.19107819 227.96982765 C15.18712165 230.19095994 15.18823307 232.41210811 15.19486618 234.63323402 C15.20310481 237.67296725 15.19273181 240.7121049 15.17782593 243.75180054 C15.18451809 244.62380612 15.19121026 245.4958117 15.19810522 246.39424169 C15.09944241 256.81900777 12.18441338 265.28482745 4.796875 272.74609375 C-3.19077894 279.18015685 -12.12092687 280.82257845 -22.203125 279.74609375 C-25.45729748 278.78373177 -28.26525722 277.42906392 -31.203125 275.74609375 C-32.7809375 274.91078125 -32.7809375 274.91078125 -34.390625 274.05859375 C-40.29790011 269.20150088 -44.76729877 262.07901731 -45.5390625 254.40625 C-45.64345313 244.79187306 -45.64345313 244.79187306 -43.703125 240.18359375 C-40.97762444 237.52623071 -38.22573232 235.66962287 -34.91015625 233.82421875 C-33.03851631 232.84805915 -33.03851631 232.84805915 -32.203125 230.74609375 C-31.79431934 226.1032766 -31.79431934 226.1032766 -33.265625 221.80859375 C-36.51365695 220.02741494 -38.535459 220.21369062 -42.203125 220.74609375 C-49.50317392 224.21203002 -54.9846929 229.62195059 -58.19921875 237.046875 C-59.66294831 241.21395197 -60.6404904 245.3575439 -61.203125 249.74609375 C-70.02148211 250.52994772 -78.24380375 247.04843375 -85.203125 241.74609375 C-86.4096875 240.85083984 -86.4096875 240.85083984 -87.640625 239.9375 C-95.52614107 233.19394129 -99.11289298 223.54125267 -100.515625 213.51171875 C-101.05552554 204.26592203 -98.00156209 195.24497066 -91.953125 188.30859375 C-84.50864017 180.82779436 -77.23166611 176.23294035 -67.203125 172.74609375 C-66.543125 172.74609375 -65.883125 172.74609375 -65.203125 172.74609375 C-63.93841864 166.77688544 -63.93841864 166.77688544 -65.578125 161.12109375 C-69.67983453 158.97257923 -72.92241669 159.50742071 -77.203125 160.74609375 C-87.43702185 164.90174848 -97.75046165 170.5075186 -104.203125 179.74609375 C-112.04221058 178.73962887 -118.89926063 172.85422897 -123.640625 166.74609375 C-130.77459856 156.18863288 -134.63877253 144.5862672 -133.203125 131.74609375 C-130.38988621 118.33155398 -124.04369736 106.90438719 -112.6796875 98.98828125 C-103.33053611 93.1766466 -95.2213918 91.63740923 -84.203125 92.74609375 C-78.74350632 94.42875401 -74.66682619 97.20063414 -70.515625 101.05859375 C-67.86672743 103.4883154 -67.26260885 103.73717117 -63.453125 104.30859375 C-60.32223653 103.94760913 -60.32223653 103.94760913 -58.265625 102.68359375 C-56.60311518 99.6519582 -56.90578344 97.13578753 -57.203125 93.74609375 C-57.81992913 91.42624534 -57.81992913 91.42624534 -59.203125 89.74609375 C-60.53360941 89.07375941 -61.86739363 88.40794263 -63.203125 87.74609375 C-64.52279855 86.79766307 -65.83482606 85.83853788 -67.140625 84.87109375 C-76.54763062 78.57409653 -87.09594893 77.10966743 -98.203125 76.74609375 C-101.8914683 66.37262823 -100.69729407 56.71142516 -96.203125 46.74609375 C-91.29816774 38.24223294 -83.56062157 31.43006167 -74.5234375 27.62890625 C-65.07152963 25.11581074 -53.68724945 25.37613771 -44.66796875 29.28125 C-38.84311713 32.74292886 -33.39994512 37.30919319 -30.015625 43.24609375 C-28.33775731 46.0901517 -28.33775731 46.0901517 -24.703125 46.80859375 C-21.31247065 46.9477603 -21.31247065 46.9477603 -18.765625 45.80859375 C-16.8321492 43.25640569 -16.45948282 41.17617951 -16.62890625 37.9921875 C-18.53337529 30.54273376 -26.14649468 24.08147922 -32.203125 19.74609375 C-35.46405518 17.90336497 -38.78147805 16.26760479 -42.203125 14.74609375 C-41.28174015 8.56116555 -38.15653005 5.02392234 -33.2734375 1.2578125 C-22.78400694 -5.66031388 -10.97124387 -6.24427178 0 0 Z " fill="#99C7FE" transform="translate(201.203125,99.25390625)"/>
<path d="M0 0 C1.28426376 -0.00708481 2.56852753 -0.01416962 3.89170837 -0.02146912 C5.31799351 -0.0191752 6.74427832 -0.01666549 8.17056274 -0.01396179 C9.67026524 -0.01830826 11.16996552 -0.02349118 12.66966248 -0.02944946 C16.74616177 -0.04285902 20.82256846 -0.04341588 24.89908552 -0.04088616 C28.30118675 -0.0398176 31.70326915 -0.04469697 35.10536635 -0.04949158 C43.13183281 -0.06059391 51.15825247 -0.06102035 59.1847229 -0.05497742 C67.46616712 -0.04893837 75.74744141 -0.06124519 84.02885664 -0.08254749 C91.13722771 -0.10016032 98.24554469 -0.10616528 105.35393679 -0.10290974 C109.60016473 -0.10109595 113.84627151 -0.1037424 118.09247971 -0.11762428 C122.08651989 -0.13019259 126.08029521 -0.1282681 130.07433128 -0.11521339 C131.53966168 -0.11284573 133.00501065 -0.11558913 134.47031975 -0.12383652 C136.47180666 -0.1342887 138.4733689 -0.12440918 140.47485352 -0.11352539 C142.1545073 -0.113777 142.1545073 -0.113777 143.86809349 -0.1140337 C148.25353264 0.43442501 150.87917356 2.07161747 153.6769104 5.44819641 C155.22996808 9.12649091 155.53652243 12.36550171 154.8644104 16.26069641 C152.81246702 20.61081637 150.69388238 22.86714023 146.21344185 24.66049385 C140.80238799 26.04307576 135.12886884 25.6844836 129.57901001 25.66474915 C128.12959773 25.67045743 126.68018994 25.67742346 125.23078918 25.68554688 C121.30937307 25.70343968 117.38818118 25.70231767 113.46673656 25.69660449 C110.1887866 25.69350804 106.91087944 25.69960992 103.63293558 25.70564324 C95.8997547 25.71967312 88.16668434 25.71813905 80.4335022 25.70674133 C72.46208225 25.69525197 64.49099842 25.70935287 56.51962274 25.73613781 C49.66676656 25.75830007 42.81401586 25.7649313 35.96112639 25.7590614 C31.8719458 25.75569302 27.78298085 25.75809925 23.69383049 25.77531242 C19.84985321 25.79078883 16.00637411 25.78681881 12.16241646 25.76800728 C10.75394409 25.76432376 9.34543473 25.76742306 7.93699646 25.77789307 C-5.2177995 25.86820013 -5.2177995 25.86820013 -10.1355896 21.26069641 C-12.91708542 18.33806761 -13.56690561 16.33660383 -13.5730896 12.32319641 C-13.46769658 8.74510356 -13.22335894 7.40596981 -11.3230896 4.26069641 C-7.39043004 0.66512196 -5.23818377 0.00960962 0 0 Z " fill="#98C7FE" transform="translate(160.13558959960938,394.7393035888672)"/>
<path d="M0 0 C1.26170013 -0.00990463 2.52340027 -0.01980927 3.82333374 -0.03001404 C5.20880225 -0.02577656 6.59426981 -0.02121876 7.97973633 -0.01637268 C9.44870523 -0.02207913 10.91766969 -0.02904445 12.3866272 -0.03717041 C16.36595086 -0.0550852 20.34505382 -0.05393684 24.32440567 -0.04822803 C27.64952648 -0.04513422 30.97460502 -0.05123065 34.29971981 -0.05726677 C42.14459194 -0.0713044 49.98935514 -0.06975663 57.83422852 -0.05836487 C65.92207347 -0.04687969 74.00958698 -0.06096763 82.09738827 -0.08776134 C89.04788769 -0.10992352 95.9982831 -0.11655471 102.94881535 -0.11068493 C107.09725446 -0.10731594 111.24548104 -0.10972669 115.39389038 -0.12693596 C119.29448545 -0.14241178 123.19458954 -0.13844294 127.09516525 -0.11963081 C128.52460003 -0.11594688 129.95407125 -0.1190478 131.38347244 -0.1295166 C144.78356773 -0.22014795 144.78356773 -0.22014795 149.62426758 4.38768005 C152.03324279 7.35874948 152.58939629 9.06221465 152.99926758 12.88768005 C152.46870358 17.83961068 150.4398432 21.2080337 146.62426758 24.38768005 C143.37209988 25.47173595 140.99403659 25.52158971 137.57133484 25.53485107 C136.30534454 25.54200638 135.03935425 25.54916168 133.73500061 25.55653381 C132.32919336 25.55937403 130.92338585 25.56208577 129.51757812 25.56468201 C128.03920329 25.57094749 126.56083003 25.57759436 125.0824585 25.58459473 C120.22531224 25.60562556 115.36816571 25.61599542 110.51098633 25.6259613 C108.83858537 25.63000907 107.16618457 25.634126 105.49378395 25.63831139 C97.63745098 25.65736003 89.7811274 25.67159237 81.92477578 25.67992336 C72.85652452 25.68969835 63.78851718 25.71602598 54.72035187 25.75642425 C47.71048706 25.78658122 40.7006922 25.80139178 33.69076377 25.80470437 C29.50424458 25.80705513 25.31798608 25.81601895 21.13153648 25.84116554 C17.19244768 25.86444445 13.25379125 25.86868045 9.31465149 25.85840416 C7.87069066 25.85790866 6.42670855 25.86423351 4.98281288 25.87796021 C3.00800499 25.89568051 1.03300933 25.88618723 -0.94184875 25.87542725 C-2.04594747 25.8778156 -3.15004618 25.88020395 -4.28760242 25.88266468 C-8.13759281 25.26556435 -10.32514385 23.76757074 -13.37573242 21.38768005 C-16.13201961 17.37636873 -15.90482543 13.08233068 -15.37573242 8.38768005 C-13.98988253 4.84606367 -12.92840026 3.71467841 -9.6570282 1.77909756 C-6.1425084 0.28878254 -3.7959638 0.0084403 0 0 Z " fill="#99C7FE" transform="translate(162.375732421875,434.61231994628906)"/>
<path d="M0 0 C25.36676778 11.30921901 44.04558733 30.99242618 54.28125 56.7890625 C58.38641147 68.84064366 61.77662657 82.20515176 60.375 95 C58.8125 98.125 58.8125 98.125 56.375 100 C52.90317876 100.92995212 50.52765918 101.34268246 47.0625 100.3125 C43.81174577 97.7841356 43.40165617 95.20774891 42.8828125 91.1640625 C42.75241752 89.65127963 42.6249697 88.13824071 42.5 86.625 C40.68576148 68.50806506 34.27263174 49.24121068 20.67578125 36.39453125 C19.375 35 19.375 35 19.375 33 C18.80265625 32.74476563 18.2303125 32.48953125 17.640625 32.2265625 C15.13195997 30.86842315 13.26833151 29.2560357 11.125 27.375 C5.53822103 22.80399902 -0.50938318 19.8322639 -6.98828125 16.76171875 C-15.00485016 12.93022476 -15.00485016 12.93022476 -17.625 9 C-17.85372102 5.21847911 -17.40742359 1.96298289 -15 -1 C-9.44818947 -3.33760443 -5.41248147 -2.11358115 0 0 Z " fill="#1383DF" transform="translate(289.625,117)"/>
<path d="M0 0 C1.72187279 -0.01407143 1.72187279 -0.01407143 3.47853088 -0.02842712 C4.70885544 -0.01719315 5.93917999 -0.00595917 7.20678711 0.00561523 C8.47759628 0.00416 9.74840546 0.00270477 11.057724 0.00120544 C13.7421601 0.00286441 16.42517508 0.01233383 19.109375 0.03515625 C22.54498515 0.06356992 25.97970715 0.06079281 29.41538334 0.04806614 C32.70007502 0.03943011 35.98462323 0.0545564 39.26928711 0.06811523 C40.50163589 0.0651796 41.73398468 0.06224396 43.00367737 0.05921936 C44.72082191 0.07824562 44.72082191 0.07824562 46.47265625 0.09765625 C47.47905655 0.10305923 48.48545685 0.10846222 49.52235413 0.11402893 C52.57345254 0.56050928 53.9483922 1.40062342 56.17163086 3.50170898 C57.40037749 6.94078719 57.49529955 10.38358077 56.48413086 13.87670898 C54.85261133 15.89668554 53.5816583 16.52789338 51.17163086 17.50170898 C48.56031799 17.76913452 48.56031799 17.76913452 45.56445312 17.79223633 C44.43971085 17.80499603 43.31496857 17.81775574 42.15614319 17.8309021 C40.94566818 17.83312775 39.73519318 17.83535339 38.48803711 17.83764648 C36.61655251 17.84763168 36.61655251 17.84763168 34.70726013 17.8578186 C32.06852954 17.86794445 29.43021101 17.87350086 26.79150391 17.87231445 C23.41754579 17.87211118 20.04442919 17.89942654 16.67067051 17.93385887 C13.44315776 17.9614981 10.21565214 17.96027752 6.98803711 17.96264648 C5.77958633 17.97701752 4.57113556 17.99138855 3.32606506 18.00619507 C2.19817062 18.00004181 1.07027618 17.99388855 -0.09179688 17.98754883 C-1.08122787 17.99039886 -2.07065887 17.9932489 -3.09007263 17.9961853 C-6.59710066 17.36289292 -8.29003768 15.95322516 -10.82836914 13.50170898 C-11.49243164 11.28295898 -11.49243164 11.28295898 -11.45336914 9.00170898 C-11.46625977 8.24889648 -11.47915039 7.49608398 -11.49243164 6.72045898 C-9.86547802 1.28451983 -5.1489579 0.00084948 0 0 Z " fill="#1383DF" transform="translate(402.828369140625,201.498291015625)"/>
<path d="M0 0 C5.80314164 4.31031295 10.87098357 9.72294958 15.96484375 14.83203125 C16.68362198 15.54985275 17.40240021 16.26767426 18.14295959 17.00724792 C19.6457693 18.50938252 21.14733866 20.01275897 22.64770508 21.51733398 C24.9521476 23.82718196 27.26194389 26.13158091 29.57226562 28.43554688 C31.0367795 29.90072072 32.50098358 31.36620429 33.96484375 32.83203125 C34.65642075 33.52158401 35.34799774 34.21113678 36.06053162 34.92158508 C36.69531937 35.55952499 37.33010712 36.1974649 37.98413086 36.85473633 C38.54402206 37.41542313 39.10391327 37.97610992 39.68077087 38.55378723 C41.60696946 40.66539388 41.99290701 41.94680254 42.375 44.8125 C42 48 42 48 39.9375 50.875 C37 53 37 53 33.6875 53.75 C29.87428583 52.97443102 29.01824745 52.43506585 26.26953125 49.92724609 C25.56932861 49.29179871 24.86912598 48.65635132 24.14770508 48.00164795 C23.4389624 47.34110413 22.73021973 46.6805603 22 46 C21.34604248 45.39214661 20.69208496 44.78429321 20.01831055 44.15802002 C15.72250471 40.11840208 11.50613094 35.99715964 7.29736328 31.8671875 C5.76021577 30.36695766 4.21420148 28.87576169 2.65966797 27.39355469 C0.39701301 25.23424558 -1.83483037 23.04687734 -4.0625 20.8515625 C-4.75923828 20.19813873 -5.45597656 19.54471497 -6.17382812 18.87149048 C-9.60214618 15.42941347 -11.43056866 13.13936648 -11.56640625 8.16943359 C-11.39330996 4.81789796 -11.11941243 4.14399734 -8.875 1.4375 C-5.33933859 -0.33033071 -3.89612263 -0.84034017 0 0 Z " fill="#1483DF" transform="translate(359,308)"/>
<path d="M0 0 C1.88047791 0.50524902 1.88047791 0.50524902 4.44297791 2.63024902 C6.21080861 6.16591043 6.72081808 7.6091264 5.88047791 11.50524902 C4.55125427 13.28651428 4.55125427 13.28651428 2.81602478 15.20666504 C2.18003357 15.91138947 1.54404236 16.61611389 0.88877869 17.3421936 C-4.41616702 23.05592517 -9.87909524 28.61065549 -15.36219788 34.1529541 C-16.87335895 35.68585262 -18.37821454 37.22499162 -19.87684631 38.7701416 C-22.05796329 41.01809542 -24.25807591 43.24578594 -26.46327209 45.47009277 C-27.4588916 46.50745827 -27.4588916 46.50745827 -28.47462463 47.56578064 C-31.65503761 50.73235328 -33.49818728 52.33813552 -37.91835022 53.52697754 C-41.61753623 53.50186867 -43.24543087 52.78761558 -46.11952209 50.50524902 C-47.80852504 47.12724313 -47.98445342 44.1093287 -47.11952209 40.50524902 C-44.7388183 36.90593088 -41.75287785 33.9936547 -38.68592834 30.97399902 C-37.81943161 30.09747681 -36.95293488 29.22095459 -36.06018066 28.31787109 C-34.22473691 26.47261455 -32.37907563 24.63747284 -30.52406311 22.81188965 C-27.69318179 20.01626971 -24.91049233 17.17831919 -22.12928772 14.33337402 C-20.33839914 12.54417771 -18.54486315 10.75762659 -16.74842834 8.97399902 C-15.50567894 7.69921692 -15.50567894 7.69921692 -14.23782349 6.39868164 C-9.61369654 1.91985073 -6.58551322 -0.474319 0 0 Z " fill="#1383DE" transform="translate(395.11952209472656,59.4947509765625)"/>
<path d="M0 0 C0.66 -0.0103125 1.32 -0.020625 2 -0.03125 C4.92786881 0.74646515 6.09411741 2.1742792 8 4.5 C8.5146637 7.1872406 8.5146637 7.1872406 8.53344727 10.29077148 C8.5492836 11.45555527 8.56511993 12.62033905 8.58143616 13.82041931 C8.57399635 15.70175316 8.57399635 15.70175316 8.56640625 17.62109375 C8.57570412 19.55916649 8.57570412 19.55916649 8.58518982 21.53639221 C8.59558839 24.26931593 8.59104195 27.00171881 8.57641602 29.73461914 C8.5592374 33.22990825 8.58271082 36.72355202 8.61790562 40.21865749 C8.64520259 43.56123254 8.63514165 46.90341242 8.62890625 50.24609375 C8.64216446 51.49829208 8.65542267 52.75049042 8.66908264 54.04063416 C8.56549517 63.69374639 8.56549517 63.69374639 5.64819336 66.79321289 C2.37260042 68.90436531 0.82659146 69.2174859 -3 68.5 C-6.16299336 66.50943004 -7.77509641 65.47808396 -8.62818909 61.76806641 C-8.62915085 60.72312012 -8.63011261 59.67817383 -8.63110352 58.6015625 C-8.64363663 57.41353027 -8.65616974 56.22549805 -8.66908264 55.00146484 C-8.65582443 53.72223145 -8.64256622 52.44299805 -8.62890625 51.125 C-8.63131821 49.80838379 -8.63373016 48.49176758 -8.63621521 47.13525391 C-8.63907101 44.35092242 -8.6243958 41.56739635 -8.59692383 38.78320312 C-8.56283926 35.218466 -8.56886009 31.65516862 -8.5875864 28.09036255 C-8.60071069 24.68509902 -8.58243805 21.2802535 -8.56640625 17.875 C-8.57136612 16.5957666 -8.57632599 15.3165332 -8.58143616 13.99853516 C-8.56559982 12.81050293 -8.54976349 11.6224707 -8.53344727 10.3984375 C-8.52724869 9.35349121 -8.52105011 8.30854492 -8.5146637 7.23193359 C-7.63614727 2.56859994 -4.77237504 -0.07456836 0 0 Z " fill="#1383DE" transform="translate(250,0.5)"/>
</svg>
